<svg xmlns="http://www.w3.org/2000/svg" viewBox="0 0 100 100">
  <!-- Abdomen -->
  <path d="M50,40 C20,40 20,80 50,80 C80,80 80,40 50,40 Z" fill="#3d3d3d"/>
  
  <!-- Cephalothorax -->
  <path d="M50,20 C35,20 30,30 30,40 C30,50 35,60 50,60 C65,60 70,50 70,40 C70,30 65,20 50,20 Z" fill="#2a2a2a"/>
  
  <!-- Eyes -->
  <g fill="#ff0000">
    <circle cx="45" cy="35" r="4"/>
    <circle cx="55" cy="35" r="4"/>
    <circle cx="40" cy="42" r="3"/>
    <circle cx="60" cy="42" r="3"/>
    <circle cx="48" cy="48" r="2"/>
    <circle cx="52" cy="48" r="2"/>
  </g>
  
  <!-- Creepy Curved Legs -->
  <g stroke="#1c1c1c" stroke-width="5" stroke-linecap="round" fill="none">
    <!-- Left Legs -->
    <path d="M40,42 Q 10,20 15,60" />
    <path d="M35,50 Q 5,40 10,80" />
    <path d="M35,58 Q 5,70 15,95" />
    <path d="M40,66 Q 20,90 30,98" />

    <!-- Right Legs -->
    <path d="M60,42 Q 90,20 85,60" />
    <path d="M65,50 Q 95,40 90,80" />
    <path d="M65,58 Q 95,70 85,95" />
    <path d="M60,66 Q 80,90 70,98" />
  </g>
</svg>