<svg xmlns="http://www.w3.org/2000/svg" viewBox="0 0 100 100">
  <!-- Head -->
  <circle cx="50" cy="25" r="15" fill="#e0e0e0"/>
  <path d="M50,10 C40,10 35,20 35,25 C35,35 40,40 50,40 C60,40 65,35 65,25 C65,20 60,10 50,10 Z" fill="#c0c0c0"/>
  <circle cx="45" cy="25" r="2" fill="#000"/>
  <circle cx="55" cy="25" r="2" fill="#000"/>

  <!-- Body -->
  <path d="M40,40 L60,40 L55,80 L45,80 Z" fill="#a9a9a9"/>
  <path d="M40,40 L45,40 L45,80 L40,80 Z" fill="#808080"/>

  <!-- Arms -->
  <path d="M40,45 L30,50 L35,60 L45,55 Z" fill="#a9a9a9"/>
  <path d="M60,45 L70,50 L65,60 L55,55 Z" fill="#a9a9a9"/>

  <!-- Legs -->
  <path d="M45,80 L40,95 L50,95 Z" fill="#808080"/>
  <path d="M55,80 L60,95 L50,95 Z" fill="#808080"/>
</svg>